<svg xmlns="http://www.w3.org/2000/svg" width="150" height="150" viewBox="0 0 150 150"><path fill="rgba(242, 182, 240, 255)" d="M58.741 5.989c-3.064 2.41-4.727 7.419-4.735 14.261L54 25h-7.8c-4.733 0-8.272.472-9 1.2-.679.679-1.2 3.933-1.2 7.5 0 3.465-.337 6.295-.75 6.289s-2.959-.681-5.659-1.5c-7.531-2.284-13.791-1.97-16.417.825-3.086 3.285-2.779 8.486 1.004 17.018 1.861 4.2 3.349 9.445 3.592 12.668.378 5.009.206 5.589-1.928 6.5-2.328.994-2.344 1.119-2.614 20.497C12.911 118.643 12.637 118 22.62 118c8.413 0 9.38-1.08 9.38-10.478 0-6.842.134-7.3 2-6.812 1.753.459 2 1.364 2 7.335 0 7.63 1.361 9.956 5.821 9.953 2.669-.002 2.678.022 2.391 6.75-.369 8.628 1.626 12.83 7.666 16.142 3.343 1.833 5.942 2.41 11 2.44 10.686.062 16.264-2.449 22.27-10.026 2.841-3.585 3.398-3.833 9.683-4.304l6.669-.5.302-5.25.303-5.25h4.376c6.777 0 7.519-1.339 7.519-13.571 0-9.762.128-10.429 2-10.429s2 .667 2 10.429c0 12.775.536 13.571 9.137 13.571 10.274 0 9.863.888 9.863-21.335 0-13.651-.35-19.615-1.2-20.465-.66-.66-3.36-1.2-6-1.2H125v-5.031c0-3.572-.439-5.2-1.515-5.613-1.135-.436.113-2.307 4.977-7.463 3.57-3.784 7.402-8.666 8.515-10.847 5.227-10.246.167-17.975-15.486-23.657-7.566-2.746-14.079-3.024-21.082-.9-6.689 2.029-14.271 1.923-17.527-.246-1.44-.958-5.715-4.998-9.5-8.976-7.787-8.183-10.655-9.413-14.641-6.278M43 34c0 1.467.667 2 2.5 2s2.5-.533 2.5-2-.667-2-2.5-2-2.5.533-2.5 2m73.75 38.332c-.412 1.007-.75 4.72-.75 8.25V87h2.918c5.952 0 6.082.257 6.082 11.99 0 10.701.018 10.78 2.5 11.255l2.5.478V82h-4.878c-5.788 0-6.878-1.048-7.303-7.02-.225-3.158-.54-3.94-1.069-2.648M20 104.394c0 6.243.034 6.322 2.548 5.842 2.378-.455 2.528-.821 2.25-5.502-.246-4.145-.688-5.158-2.548-5.842-2.183-.803-2.25-.64-2.25 5.502" fill-rule="evenodd"/><path fill-opacity=".409" d="M37.422 26.344c-.284.739-.382 4.676-.219 8.75L37.5 42.5l5.25.302 5.25.303V52h-4.965C37.28 52 36 53.434 36 59.882v4.013l-5.25.303-5.25.302-.302 5.25c-.302 5.239-.31 5.25-3.685 5.25-1.861 0-4.537.439-5.948.975L13 76.95l.015 18.775c.009 10.326.385 19.358.837 20.07.587.925 3.08 1.211 8.735 1l7.913-.295.238-5C31.382 97.972 32.109 94 33.94 94c1.978 0 3.035 5.612 3.051 16.191.005 3.13.375 5.917.823 6.194s2.923.613 5.5.746l4.686.243v4.613c0 2.537.54 5.153 1.2 5.813 1.628 1.628 18.972 1.628 20.6 0 1.581-1.581 1.581-14.019 0-15.6-.698-.698-4.044-1.2-8-1.2-6.587 0-6.8-.078-6.8-2.5V106h40v2.5c0 2.422-.213 2.5-6.8 2.5-3.956 0-7.302.502-8 1.2-1.581 1.581-1.581 14.019 0 15.6.758.758 4.556 1.2 10.3 1.2s9.542-.442 10.3-1.2c.66-.66 1.2-3.336 1.2-5.948v-4.747l5.25-.303 5.25-.302.25-9c.335-12.075.729-13.5 3.736-13.5 2.436 0 2.45.057 2.731 11.25l.283 11.25 8.221.29c7.849.277 8.246.186 8.784-2 .31-1.26.436-10.39.28-20.29l-.285-18-5.702-.298-5.701-.299-.299-5.701-.298-5.702-5.25-.302-5.25-.303v-4.013c0-6.448-1.28-7.882-7.035-7.882H102v-9h4.8c2.64 0 5.34-.54 6-1.2 1.741-1.741 1.578-14.242-.205-15.721-.882-.732-4.327-1.057-9.25-.873L95.5 25.5l-.302 5.25-.303 5.25h-4.376C84.344 36 83 37.711 83 45.571V52H67v-6.429C67 37.693 65.661 36 59.429 36H55v-4.893C55 25.277 54.542 25 44.887 25c-4.896 0-7.102.397-7.465 1.344M43 34c0 2.533.389 3 2.5 3s2.5-.467 2.5-3-.389-3-2.5-3-2.5.467-2.5 3m59 0c0 1.467.667 2 2.5 2s2.5-.533 2.5-2-.667-2-2.5-2-2.5.533-2.5 2M55 49.8c0 3.956-.502 7.302-1.2 8-.66.66-3.36 1.2-6 1.2H43v4.8c0 5.912-1.198 7.2-6.7 7.2H32v4.3c0 5.502-1.288 6.7-7.2 6.7H20v29h5V99.607c0-9.466.267-11.496 1.582-12 2.824-1.084 13.976-.649 15.218.593.785.785 1.2 4.933 1.2 12V111h2.5c2.319 0 2.5-.347 2.5-4.8 0-2.64.54-5.34 1.2-6 1.706-1.706 49.894-1.706 51.6 0 .66.66 1.2 3.36 1.2 6 0 4.453.181 4.8 2.5 4.8h2.5v-10.8c0-7.067.415-11.215 1.2-12 1.581-1.581 14.019-1.581 15.6 0 .785.785 1.2 4.933 1.2 12V111h5V82.105l-5.25-.303-5.25-.302-.5-5.485-.5-5.486-4.301.316c-5.741.421-7.199-.99-7.199-6.967V59h-4.8c-2.64 0-5.34-.54-6-1.2-.698-.698-1.2-4.044-1.2-8 0-6.587-.078-6.8-2.5-6.8s-2.5.213-2.5 6.8c0 3.956-.502 7.302-1.2 8-1.663 1.663-25.937 1.663-27.6 0-.698-.698-1.2-4.044-1.2-8 0-6.587-.078-6.8-2.5-6.8s-2.5.213-2.5 6.8m-6.333 22.867c-1.185 1.184-.733 14.867.533 16.133 1.593 1.593 15.007 1.593 16.6 0 1.242-1.242 1.677-12.394.593-15.218C65.908 72.317 64.139 72 57.56 72c-4.525 0-8.527.3-8.893.667m34.954.878c-1.095 2.853-.672 14.004.579 15.255 1.756 1.756 15.233 1.588 16.723-.208.724-.872 1.056-4.197.873-8.75L101.5 72.5l-8.629-.287c-7.202-.24-8.731-.02-9.25 1.332M55 80.5c0 2 .5 2.5 2.5 2.5s2.5-.5 2.5-2.5-.5-2.5-2.5-2.5-2.5.5-2.5 2.5m35 0c0 2 .5 2.5 2.5 2.5s2.5-.5 2.5-2.5-.5-2.5-2.5-2.5-2.5.5-2.5 2.5m-35 39.243c0 2.008.496 2.257 4.5 2.257 3.754 0 4.5-.315 4.5-1.899 0-1.532-.872-1.969-4.5-2.258-4.11-.326-4.5-.162-4.5 1.9m35.25-2.011c-3.323.3-4.25.785-4.25 2.225 0 1.463.925 1.915 4.5 2.2 4.332.344 4.5.254 4.5-2.4 0-1.516-.112-2.678-.25-2.582s-2.162.347-4.5.557" fill-rule="evenodd"/><path fill-opacity=".41" d="M37.422 26.344c-.284.739-.382 4.676-.219 8.75L37.5 42.5l5.25.302 5.25.303V52h-3.918C37.614 52 37 52.572 37 58.607V64h-4.8c-2.64 0-5.34.54-6 1.2s-1.2 3.36-1.2 6V76h-4.8c-2.64 0-5.34.54-6 1.2-1.865 1.865-1.676 37.16.208 38.723.872.724 4.197 1.056 8.75.873l7.342-.296.283-11.25.283-11.25h5.868l.283 11.25.283 11.25 5.25.302 5.25.303v4.256c0 7.103 1.071 7.765 12.016 7.43l9.484-.291v-17l-7.25-.294-7.25-.294V105h40v5.912l-7.25.294-7.25.294v17h20l.5-5.5.5-5.5 5.5-.5 5.5-.5.283-11.25.283-11.25h5.868l.283 11.25.283 11.25 7.342.296c4.553.183 7.878-.149 8.75-.873 1.884-1.563 2.073-36.858.208-38.723-.66-.66-3.36-1.2-6-1.2H125v-4.8c0-2.64-.54-5.34-1.2-6s-3.36-1.2-6-1.2H113v-5.393c0-6.035-.614-6.607-7.082-6.607H102v-8.895l5.25-.303 5.25-.302v-17l-7.342-.296C96.178 24.843 95 25.639 95 32.07v4.825l-5.25.303-5.25.302-.294 7.25-.294 7.25H66.088l-.294-7.25-.294-7.25-5.25-.302-5.25-.303v-4.747c0-2.612-.54-5.288-1.2-5.948-1.736-1.736-15.704-1.613-16.378.144M43 34c0 2.828.268 3.102 2.75 2.816 2.182-.251 2.75-.832 2.75-2.816s-.568-2.565-2.75-2.816C43.268 30.898 43 31.172 43 34m59 0c0 2.533.389 3 2.5 3s2.5-.467 2.5-3-.389-3-2.5-3-2.5.467-2.5 3M55 49.965C55 57.921 54.059 59 47.118 59h-4.013l-.303 5.25-.302 5.25-5.702.298-5.701.299-.299 5.701L30.5 81.5l-5.25.302-5.25.303-.005 4.697c-.003 2.584-.296 9.086-.651 14.448l-.646 9.75H25v-10.965C25 87.381 25.263 87 34 87s9 .381 9 13.035V111h2.5c2.257 0 2.5-.396 2.5-4.066C48 98.671 46.88 99 75 99s27-.329 27 7.934c0 3.67.243 4.066 2.5 4.066h2.5v-10.965c0-13.079.147-13.25 10.564-12.22l6.936.685.283 11.25.283 11.25H131V82.1l-5.75-.3-5.75-.3-.298-5.702-.299-5.701-5.701-.299-5.702-.298-.302-5.25-.303-5.25h-4.013C95.941 59 95 57.921 95 49.965 95 43.202 94.927 43 92.5 43s-2.5.202-2.5 6.965C90 58.764 89.609 59 75 59s-15-.236-15-9.035C60 43.202 59.927 43 57.5 43s-2.5.202-2.5 6.965m-5.762 23.197c-1.635 1.635-1.609 12.948.034 15.195 1.05 1.437 2.574 1.688 8.75 1.441L65.5 89.5v-17l-7.512-.288c-4.985-.191-7.929.129-8.75.95m35.184.182c-.284.739-.382 4.676-.219 8.75L84.5 89.5l7.478.298c6.176.247 7.7-.004 8.75-1.441 1.617-2.211 1.67-13.559.072-15.157-1.736-1.736-15.704-1.613-16.378.144M55 81c0 2.533.389 3 2.5 3s2.5-.467 2.5-3-.389-3-2.5-3-2.5.467-2.5 3m35 0c0 2.533.389 3 2.5 3s2.5-.467 2.5-3-.389-3-2.5-3-2.5.467-2.5 3m-35 39c0 2.889.167 3 4.5 3s4.5-.111 4.5-3-.167-3-4.5-3-4.5.111-4.5 3m31 0c0 2.889.167 3 4.5 3s4.5-.111 4.5-3-.167-3-4.5-3-4.5.111-4.5 3" fill-rule="evenodd"/><path fill-opacity=".971" d="M38.2 26.2c-.691.691-1.2 4-1.2 7.8s.509 7.109 1.2 7.8c.66.66 3.385 1.2 6.055 1.2h4.855l-.305 4.75-.305 4.75-5.5.5-5.5.5-.302 5.25-.303 5.25h-4.747c-2.612 0-5.288.54-5.948 1.2S25 68.536 25 71.148v4.747l-5.25.303-5.25.302v40l5.958.306c10.719.551 10.434.871 10.759-12.067L31.5 93.5H34c2.493 0 2.501.033 3 11.5l.5 11.5 5.75.3 5.75.3v5.343c0 3.95.413 5.501 1.582 5.95 2.907 1.116 16.967.658 18.218-.593.711-.711 1.2-4.132 1.2-8.393 0-8.373-.039-8.407-9.648-8.407-6.484 0-6.485 0-6.168-2.75l.316-2.75h41l.316 2.75c.317 2.75.316 2.75-6.168 2.75-9.609 0-9.648.034-9.648 8.407 0 4.261.489 7.682 1.2 8.393 1.251 1.251 15.311 1.709 18.218.593 1.169-.449 1.582-2 1.582-5.95V117.1l5.75-.3 5.75-.3.5-11.5.5-11.5 2.75-.316 2.75-.317v11.548c0 13.314-.311 12.949 10.542 12.391l5.958-.306v-40l-5.25-.302-5.25-.303v-4.912c0-5.698-1.45-6.983-7.882-6.983h-4.013l-.303-5.25-.302-5.25-5.5-.5-5.5-.5-.305-4.75-.305-4.75h4.855c2.67 0 5.395-.54 6.055-1.2 1.744-1.744 1.577-14.242-.21-15.725-.862-.716-4.068-1.055-8.25-.873l-6.84.298-.298 5.702-.299 5.701-5.701.299-5.702.298-.292 7.75-.292 7.75H66.084l-.292-7.75-.292-7.75-5.75-.3-5.75-.3v-5.343c0-3.95-.413-5.501-1.582-5.95-2.794-1.072-12.978-.647-14.218.593M43 34c0 2.667.333 3 3 3s3-.333 3-3-.333-3-3-3-3 .333-3 3m58 0c0 2.667.333 3 3 3s3-.333 3-3-.333-3-3-3-3 .333-3 3M54 50.5V58H43v4.8c0 2.64-.54 5.34-1.2 6s-3.36 1.2-6 1.2H31v4.8c0 2.64-.54 5.34-1.2 6s-3.36 1.2-6 1.2H19v29h6v-9.918c0-5.455.273-10.63.607-11.5.887-2.313 15.899-2.313 16.786 0 .334.87.607 6.045.607 11.5V111h3c2.97 0 3-.056 3-5.5V100h52v5.5c0 5.444.03 5.5 3 5.5h3v-9.918c0-5.455.273-10.63.607-11.5.887-2.313 15.899-2.313 16.786 0 .334.87.607 6.045.607 11.5V111h6V82h-4.8c-2.64 0-5.34-.54-6-1.2s-1.2-3.36-1.2-6V70h-4.8c-2.64 0-5.34-.54-6-1.2s-1.2-3.36-1.2-6V58H96V43h-3c-2.995 0-3 .009-3 5.918C90 58.44 90.728 58 75 58s-15 .44-15-9.082C60 43.009 59.995 43 57 43h-3zm-4.295 22.128c-.388.388-.705 4.182-.705 8.432 0 8.82.112 8.94 8.391 8.94 7.86 0 8.764-1.078 8.407-10.022L65.5 72.5l-7.545-.288c-4.15-.159-7.862.029-8.25.416m35 0c-.388.388-.705 3.99-.705 8.003 0 8.577.786 9.378 9.184 9.354 7.675-.022 7.954-.373 7.611-9.572L100.5 72.5l-7.545-.288c-4.15-.159-7.862.029-8.25.416M54.184 80.75c.248 2.16.906 2.818 3.066 3.066 2.471.285 2.75.006 2.75-2.75S59.689 78 56.934 78s-3.035.279-2.75 2.75M90 81.066c0 2.756.279 3.035 2.75 2.75 2.16-.248 2.818-.906 3.066-3.066.285-2.471.006-2.75-2.75-2.75S90 78.311 90 81.066M54 120c0 2.933.111 3 5 3s5-.067 5-3-.111-3-5-3-5 .067-5 3m32 0c0 2.933.111 3 5 3s5-.067 5-3-.111-3-5-3-5 .067-5 3" fill-rule="evenodd"/></svg>